<?xml version="1.0" encoding="UTF-8" standalone="no"?><!DOCTYPE svg PUBLIC "-//W3C//DTD SVG 1.1//EN" "http://www.w3.org/Graphics/SVG/1.1/DTD/svg11.dtd"><svg width="100%" height="100%" viewBox="0 0 2000 1000" version="1.1" xmlns="http://www.w3.org/2000/svg" xmlns:xlink="http://www.w3.org/1999/xlink" xml:space="preserve" xmlns:serif="http://www.serif.com/" style="fill-rule:evenodd;clip-rule:evenodd;stroke-linejoin:round;stroke-miterlimit:2;"><rect id="STiBaRC-New-Logo" serif:id="STiBaRC New Logo" x="0" y="0" width="2000" height="1000" style="fill:#2363a6;"/><g><rect x="600" y="200" width="800" height="200" style="fill:none;"/><g><path d="M1260.32,275.208c0,1.489 -0.827,2.854 -2.146,3.544c-1.319,0.69 -2.912,0.59 -4.135,-0.259c-4.329,-2.995 -9.235,-4.493 -14.719,-4.493c-3.667,0 -7.062,0.667 -10.187,2c-3.125,1.333 -5.813,3.146 -8.063,5.438c-2.25,2.291 -4.021,5.02 -5.312,8.187c-1.292,3.167 -1.938,6.583 -1.938,10.25c0,3.75 0.646,7.208 1.938,10.375c1.291,3.167 3.083,5.917 5.375,8.25c2.291,2.333 4.979,4.167 8.062,5.5c3.083,1.333 6.417,2 10,2c5.335,0 10.303,-1.546 14.904,-4.639c1.227,-0.819 2.805,-0.897 4.106,-0.201c1.301,0.695 2.114,2.051 2.114,3.526c0.001,6.749 0.001,15.512 0.001,18.895c0,0.85 -0.537,1.607 -1.339,1.888l-1.167,0.408c-3.748,1.332 -7.246,2.311 -10.494,2.936c-3.25,0.625 -6.458,0.937 -9.625,0.937c-6.5,0 -12.729,-1.229 -18.687,-3.687c-5.959,-2.459 -11.209,-5.917 -15.75,-10.375c-4.542,-4.459 -8.188,-9.75 -10.938,-15.875c-2.75,-6.125 -4.125,-12.813 -4.125,-20.063c0,-7.25 1.354,-13.896 4.063,-19.937c2.708,-6.042 6.333,-11.25 10.875,-15.625c4.541,-4.375 9.812,-7.792 15.812,-10.25c6,-2.459 12.292,-3.688 18.875,-3.688c3.75,0 7.438,0.396 11.063,1.188c3.243,0.708 6.636,1.766 10.179,3.175c0.759,0.303 1.257,1.038 1.257,1.856c0.001,3.282 0.001,11.931 0.001,18.739Z" style="fill:#fff;"/><path d="M1260.32,275.208c0,1.489 -0.827,2.854 -2.146,3.544c-1.319,0.69 -2.912,0.59 -4.135,-0.259c-4.329,-2.995 -9.235,-4.493 -14.719,-4.493c-3.667,0 -7.062,0.667 -10.187,2c-3.125,1.333 -5.813,3.146 -8.063,5.438c-2.25,2.291 -4.021,5.02 -5.312,8.187c-1.292,3.167 -1.938,6.583 -1.938,10.25c0,3.75 0.646,7.208 1.938,10.375c1.291,3.167 3.083,5.917 5.375,8.25c2.291,2.333 4.979,4.167 8.062,5.5c3.083,1.333 6.417,2 10,2c5.335,0 10.303,-1.546 14.904,-4.639c1.227,-0.819 2.805,-0.897 4.106,-0.201c1.301,0.695 2.114,2.051 2.114,3.526c0.001,6.749 0.001,15.512 0.001,18.895c0,0.85 -0.537,1.607 -1.339,1.888l-1.167,0.408c-3.748,1.332 -7.246,2.311 -10.494,2.936c-3.25,0.625 -6.458,0.937 -9.625,0.937c-6.5,0 -12.729,-1.229 -18.687,-3.687c-5.959,-2.459 -11.209,-5.917 -15.75,-10.375c-4.542,-4.459 -8.188,-9.75 -10.938,-15.875c-2.75,-6.125 -4.125,-12.813 -4.125,-20.063c0,-7.25 1.354,-13.896 4.063,-19.937c2.708,-6.042 6.333,-11.25 10.875,-15.625c4.541,-4.375 9.812,-7.792 15.812,-10.25c6,-2.459 12.292,-3.688 18.875,-3.688c3.75,0 7.438,0.396 11.063,1.188c3.243,0.708 6.636,1.766 10.179,3.175c0.759,0.303 1.257,1.038 1.257,1.856c0.001,3.282 0.001,11.931 0.001,18.739Zm-2.001,-18.738c-3.433,-1.365 -6.721,-2.392 -9.863,-3.079c-3.485,-0.761 -7.031,-1.141 -10.636,-1.141c-6.319,0 -12.358,1.179 -18.117,3.538c-5.76,2.361 -10.822,5.639 -15.183,9.84c-4.36,4.2 -7.837,9.202 -10.437,15.003c-2.597,5.793 -3.888,12.167 -3.888,19.119c0,6.953 1.312,13.369 3.95,19.243c2.644,5.89 6.147,10.98 10.514,15.267c4.357,4.278 9.395,7.595 15.111,9.954c5.716,2.358 11.691,3.536 17.925,3.536c3.043,0 6.125,-0.301 9.247,-0.902c3.158,-0.607 6.559,-1.56 10.202,-2.855l1.176,-0.412c-0.802,0.281 0,-0.85 0,0c0,-3.383 0,-12.146 -0.001,-18.895c0,-0.737 -0.406,-1.415 -1.057,-1.762c-0.65,-0.348 -1.439,-0.309 -2.048,0.097c-4.944,3.324 -10.285,4.979 -16.019,4.979c-3.868,0 -7.465,-0.725 -10.794,-2.164c-3.326,-1.439 -6.223,-3.418 -8.695,-5.935c-2.472,-2.516 -4.407,-5.48 -5.8,-8.896c-1.386,-3.397 -2.086,-7.107 -2.086,-11.13c0,-3.937 0.699,-7.605 2.086,-11.005c1.394,-3.418 3.309,-6.361 5.737,-8.834c2.43,-2.475 5.33,-4.436 8.705,-5.876c3.366,-1.436 7.023,-2.16 10.972,-2.16c5.909,0 11.193,1.621 15.86,4.85c0.611,0.424 1.407,0.474 2.067,0.129c0.66,-0.345 1.073,-1.027 1.073,-1.771l-0.001,-18.738Z" style="fill:#fff;"/><path d="M1065.32,284.946c0,-1.075 0.871,-1.946 1.946,-1.946c4.28,0 14.475,0 18.804,0c1.105,0 2,0.895 2,2c0,9.564 0,50.561 0,60.125c0,1.105 -0.895,2 -2,2c-4.311,0 -14.438,0 -18.75,0c-0.53,0 -1.039,-0.211 -1.414,-0.586c-0.375,-0.375 -0.586,-0.884 -0.586,-1.414c0,-0.07 0,-0.141 0,-0.213c0,-0.789 -0.464,-1.504 -1.183,-1.825c-0.72,-0.322 -1.562,-0.191 -2.15,0.334c-4.348,3.814 -9.789,5.704 -16.292,5.704c-4.667,0 -8.958,-0.854 -12.875,-2.562c-3.917,-1.709 -7.333,-4.105 -10.25,-7.188c-2.917,-3.083 -5.187,-6.708 -6.812,-10.875c-1.625,-4.167 -2.438,-8.708 -2.438,-13.625c0,-4.583 0.792,-8.937 2.375,-13.062c1.583,-4.125 3.792,-7.73 6.625,-10.813c2.833,-3.083 6.208,-5.521 10.125,-7.312c3.917,-1.792 8.25,-2.688 13,-2.688c6.459,0 12.021,1.82 16.688,5.459c0.581,0.468 1.378,0.561 2.051,0.239c0.673,-0.322 1.101,-1.002 1.101,-1.748c0.035,-0.001 0.035,-0.003 0.035,-0.004Zm-28.5,29.929c0,2.083 0.375,4.021 1.125,5.813c0.75,1.791 1.771,3.354 3.063,4.687c1.291,1.333 2.833,2.375 4.625,3.125c1.791,0.75 3.729,1.125 5.812,1.125c2,0 3.896,-0.375 5.688,-1.125c1.791,-0.75 3.333,-1.792 4.625,-3.125c1.291,-1.333 2.333,-2.875 3.125,-4.625c0.791,-1.75 1.187,-3.625 1.187,-5.625c0,-2 -0.396,-3.896 -1.187,-5.687c-0.792,-1.792 -1.834,-3.355 -3.125,-4.688c-1.292,-1.333 -2.834,-2.375 -4.625,-3.125c-1.792,-0.75 -3.688,-1.125 -5.688,-1.125c-2.083,0 -4.021,0.375 -5.812,1.125c-1.792,0.75 -3.334,1.792 -4.625,3.125c-1.292,1.333 -2.313,2.854 -3.063,4.563c-0.75,1.708 -1.125,3.562 -1.125,5.562Z" style="fill:#fff;"/><path d="M1065.32,284.946c0,-1.075 0.871,-1.946 1.946,-1.946c4.28,0 14.475,0 18.804,0c1.105,0 2,0.895 2,2c0,9.564 0,50.561 0,60.125c0,1.105 -0.895,2 -2,2c-4.311,0 -14.438,0 -18.75,0c-0.53,0 -1.039,-0.211 -1.414,-0.586c-0.375,-0.375 -0.586,-0.884 -0.586,-1.414c0,-0.07 0,-0.141 0,-0.213c0,-0.789 -0.464,-1.504 -1.183,-1.825c-0.72,-0.322 -1.562,-0.191 -2.15,0.334c-4.348,3.814 -9.789,5.704 -16.292,5.704c-4.667,0 -8.958,-0.854 -12.875,-2.562c-3.917,-1.709 -7.333,-4.105 -10.25,-7.188c-2.917,-3.083 -5.187,-6.708 -6.812,-10.875c-1.625,-4.167 -2.438,-8.708 -2.438,-13.625c0,-4.583 0.792,-8.937 2.375,-13.062c1.583,-4.125 3.792,-7.73 6.625,-10.813c2.833,-3.083 6.208,-5.521 10.125,-7.312c3.917,-1.792 8.25,-2.688 13,-2.688c6.459,0 12.021,1.82 16.688,5.459c0.581,0.468 1.378,0.561 2.051,0.239c0.673,-0.322 1.101,-1.002 1.101,-1.748c0.035,-0.001 0.035,-0.003 0.035,-0.004Zm1.917,0.617c-0.199,1.267 -1.009,2.374 -2.189,2.939c-1.368,0.654 -2.99,0.465 -4.145,-0.466c-4.321,-3.37 -9.477,-5.036 -15.458,-5.036c-4.445,0 -8.502,0.829 -12.168,2.506c-3.668,1.678 -6.831,3.959 -9.484,6.847c-2.666,2.901 -4.741,6.295 -6.231,10.176c-1.496,3.899 -2.242,8.014 -2.242,12.346c0,4.654 0.763,8.954 2.301,12.898c1.528,3.918 3.66,7.328 6.402,10.228c2.731,2.886 5.93,5.129 9.597,6.728c3.673,1.602 7.699,2.396 12.075,2.396c5.972,0 10.98,-1.704 14.959,-5.195c1.176,-1.051 2.859,-1.313 4.299,-0.669c1.44,0.644 2.367,2.073 2.367,3.651c0,0.072 0,0.143 0,0.213l18.75,0l0,-60.125l-18.751,0c-0.003,0.191 -0.025,0.377 -0.082,0.563Zm-32.417,29.312c0,2.361 0.43,4.555 1.28,6.585c0.85,2.029 2.008,3.797 3.471,5.307c1.478,1.525 3.24,2.72 5.289,3.578c2.03,0.85 4.225,1.28 6.585,1.28c2.272,0 4.425,-0.428 6.46,-1.28c2.05,-0.858 3.811,-2.053 5.289,-3.578c1.451,-1.498 2.622,-3.228 3.511,-5.193c0.908,-2.006 1.365,-4.156 1.365,-6.449c0,-2.284 -0.454,-4.449 -1.358,-6.496c-0.89,-2.015 -2.065,-3.771 -3.518,-5.271c-1.478,-1.525 -3.239,-2.72 -5.289,-3.578c-2.035,-0.852 -4.188,-1.28 -6.46,-1.28c-2.36,0 -4.555,0.43 -6.585,1.28c-2.049,0.858 -3.811,2.053 -5.289,3.578c-1.458,1.506 -2.611,3.222 -3.457,5.151c-0.859,1.955 -1.294,4.077 -1.294,6.366Zm2,0c0,2.083 0.375,4.021 1.125,5.813c0.75,1.791 1.771,3.354 3.063,4.687c1.291,1.333 2.833,2.375 4.625,3.125c1.791,0.75 3.729,1.125 5.812,1.125c2,0 3.896,-0.375 5.688,-1.125c1.791,-0.75 3.333,-1.792 4.625,-3.125c1.291,-1.333 2.333,-2.875 3.125,-4.625c0.791,-1.75 1.187,-3.625 1.187,-5.625c0,-2 -0.396,-3.896 -1.187,-5.687c-0.792,-1.792 -1.834,-3.355 -3.125,-4.688c-1.292,-1.333 -2.834,-2.375 -4.625,-3.125c-1.792,-0.75 -3.688,-1.125 -5.688,-1.125c-2.083,0 -4.021,0.375 -5.812,1.125c-1.792,0.75 -3.334,1.792 -4.625,3.125c-1.292,1.333 -2.313,2.854 -3.063,4.563c-0.75,1.708 -1.125,3.562 -1.125,5.562Z" style="fill:#fff;"/><path d="M1181.48,343.908c0.463,0.604 0.543,1.419 0.206,2.102c-0.337,0.683 -1.032,1.115 -1.793,1.115c-7.078,0 -21.317,0 -25.356,0c-0.679,0 -1.312,-0.345 -1.681,-0.916c-2.624,-4.071 -13.353,-20.709 -19.103,-29.626c-0.481,-0.745 -1.395,-1.085 -2.246,-0.834c-0.851,0.25 -1.435,1.031 -1.435,1.918c0,8.427 0,22.312 0,27.458c0,1.105 -0.895,2 -2,2c-4.602,0 -15.898,0 -20.5,0c-1.104,0 -2,-0.895 -2,-2c0,-12.332 0,-77.918 0,-90.25c0,-1.105 0.896,-2 2,-2l36.125,0c5.25,0 9.833,0.771 13.75,2.313c3.917,1.541 7.146,3.645 9.688,6.312c2.541,2.667 4.458,5.75 5.75,9.25c1.291,3.5 1.937,7.25 1.937,11.25c0,7.167 -1.729,12.979 -5.187,17.438c-2.965,3.822 -7.14,6.587 -12.524,8.296c-0.617,0.195 -1.101,0.679 -1.296,1.296c-0.195,0.618 -0.076,1.291 0.318,1.805c5.067,6.632 19.53,25.489 25.347,33.073Zm-51.408,-50.908c0,1.105 0.896,2 2,2l2.625,0c4.834,0 8.542,-1 11.125,-3c2.583,-2 3.875,-4.875 3.875,-8.625c0,-3.75 -1.292,-6.625 -3.875,-8.625c-2.583,-2 -6.291,-3 -11.125,-3l-2.625,0c-1.104,0 -2,0.895 -2,2c0,4.395 0,14.855 0,19.25Z" style="fill:#fff;"/><path d="M1181.48,343.908c0.463,0.604 0.543,1.419 0.206,2.102c-0.337,0.683 -1.032,1.115 -1.793,1.115c-7.078,0 -21.317,0 -25.356,0c-0.679,0 -1.312,-0.345 -1.681,-0.916c-2.624,-4.071 -13.353,-20.709 -19.103,-29.626c-0.481,-0.745 -1.395,-1.085 -2.246,-0.834c-0.851,0.25 -1.435,1.031 -1.435,1.918c0,8.427 0,22.312 0,27.458c0,1.105 -0.895,2 -2,2c-4.602,0 -15.898,0 -20.5,0c-1.104,0 -2,-0.895 -2,-2c0,-12.332 0,-77.918 0,-90.25c0,-1.105 0.896,-2 2,-2l36.125,0c5.25,0 9.833,0.771 13.75,2.313c3.917,1.541 7.146,3.645 9.688,6.312c2.541,2.667 4.458,5.75 5.75,9.25c1.291,3.5 1.937,7.25 1.937,11.25c0,7.167 -1.729,12.979 -5.187,17.438c-2.965,3.822 -7.14,6.587 -12.524,8.296c-0.617,0.195 -1.101,0.679 -1.296,1.296c-0.195,0.618 -0.076,1.291 0.318,1.805c5.067,6.632 19.53,25.489 25.347,33.073Zm-73.908,1.217c0,-1.105 1.105,0 0,0c4.602,0 15.898,0 20.5,0l0,-27.458c0,-1.774 1.169,-3.336 2.87,-3.837c1.702,-0.501 3.53,0.179 4.492,1.669l19.103,29.626l25.055,0c-0.002,-0.052 0.008,-0.102 0.03,-0.133c0.011,-0.037 0.045,-0.076 0.088,-0.106c-5.932,-7.733 -20.151,-26.273 -25.164,-32.834c-0.792,-1.031 -1.03,-2.384 -0.639,-3.624c0.392,-1.24 1.363,-2.211 2.599,-2.6c4.958,-1.574 8.818,-4.097 11.548,-7.616c3.213,-4.141 4.768,-9.555 4.768,-16.212c0,-3.754 -0.602,-7.273 -1.814,-10.558c-1.195,-3.239 -2.968,-6.094 -5.321,-8.562c-2.352,-2.468 -5.348,-4.405 -8.972,-5.831c-3.708,-1.46 -8.049,-2.174 -13.018,-2.174c0,0 -36.125,0 -36.125,0l0,90.25Zm20.5,-52.125c0,2.209 1.791,4 4,4l2.625,0c5.375,0 9.477,-1.194 12.349,-3.419c3.065,-2.372 4.651,-5.758 4.651,-10.206c0,-4.448 -1.586,-7.834 -4.651,-10.206c-2.872,-2.225 -6.974,-3.419 -12.349,-3.419c0,0 -2.625,0 -2.625,0c-2.209,0 -4,1.791 -4,4l0,19.25Zm2,0c0,1.105 0.896,2 2,2l2.625,0c4.834,0 8.542,-1 11.125,-3c2.583,-2 3.875,-4.875 3.875,-8.625c0,-3.75 -1.292,-6.625 -3.875,-8.625c-2.583,-2 -6.291,-3 -11.125,-3l-2.625,0c-1.104,0 -2,0.895 -2,2c0,4.395 0,14.855 0,19.25Z" style="fill:#fff;"/><path d="M796.155,274.869c-0.264,0.519 -0.742,0.897 -1.308,1.035c-0.566,0.137 -1.164,0.021 -1.638,-0.318c-2.045,-1.467 -4.092,-2.599 -6.14,-3.398c-2.667,-1.042 -5.25,-1.563 -7.75,-1.563c-3.167,0 -5.75,0.75 -7.75,2.25c-2,1.5 -3,3.458 -3,5.875c0,1.667 0.5,3.042 1.5,4.125c1,1.083 2.313,2.021 3.938,2.813c1.625,0.791 3.458,1.479 5.5,2.062c2.041,0.583 4.062,1.208 6.062,1.875c8,2.667 13.854,6.229 17.563,10.688c3.708,4.458 5.562,10.27 5.562,17.437c0,4.833 -0.812,9.208 -2.437,13.125c-1.625,3.917 -4,7.271 -7.125,10.063c-3.125,2.791 -6.959,4.958 -11.5,6.5c-4.542,1.541 -9.688,2.312 -15.438,2.312c-11.331,0 -21.871,-3.202 -31.62,-9.607c-0.856,-0.568 -1.142,-1.693 -0.659,-2.6c1.864,-3.515 6.355,-11.963 8.49,-15.978c0.281,-0.528 0.783,-0.902 1.37,-1.021c0.586,-0.118 1.195,0.032 1.659,0.41c3.03,2.467 6.035,4.356 9.01,5.671c3.583,1.583 7.125,2.375 10.625,2.375c4,0 6.979,-0.917 8.938,-2.75c1.958,-1.833 2.937,-3.917 2.937,-6.25c0,-1.417 -0.25,-2.646 -0.75,-3.687c-0.5,-1.042 -1.333,-2 -2.5,-2.875c-1.167,-0.875 -2.687,-1.688 -4.562,-2.438c-1.875,-0.75 -4.146,-1.583 -6.813,-2.5c-3.167,-1 -6.271,-2.104 -9.312,-3.312c-3.042,-1.209 -5.75,-2.813 -8.125,-4.813c-2.375,-2 -4.292,-4.521 -5.75,-7.562c-1.459,-3.042 -2.188,-6.896 -2.188,-11.563c0,-4.667 0.771,-8.896 2.313,-12.687c1.541,-3.792 3.708,-7.042 6.5,-9.75c2.791,-2.709 6.208,-4.813 10.25,-6.313c4.041,-1.5 8.562,-2.25 13.562,-2.25c4.667,0 9.542,0.646 14.625,1.938c4.438,1.127 8.718,2.716 12.839,4.764c0.475,0.239 0.835,0.658 1,1.163c0.166,0.506 0.123,1.056 -0.118,1.53c-1.797,3.529 -5.82,11.42 -7.76,15.224Z" style="fill:#fff;"/><path d="M911.819,289c1.105,0 2,0.895 2,2c0,8.939 0,45.186 0,54.125c0,1.105 -0.895,2 -2,2c-4.29,0 -14.335,0 -18.625,0c-1.104,0 -2,-0.895 -2,-2c0,-8.939 0,-45.186 0,-54.125c0,-1.105 0.896,-2 2,-2c4.29,0 14.335,0 18.625,0Z" style="fill:#fff;"/><path d="M862.444,273.625c-0.53,0 -1.039,0.211 -1.414,0.586c-0.375,0.375 -0.586,0.884 -0.586,1.414l0,69.5c0,1.105 -0.895,2 -2,2c-4.602,0 -15.898,0 -20.5,0c-1.104,0 -2,-0.895 -2,-2c0,-10.484 0,-59.016 0,-69.5c0,-0.53 -0.211,-1.039 -0.586,-1.414c-0.375,-0.375 -0.883,-0.586 -1.414,-0.586c-3.854,0 -12.27,0 -16.125,0c-1.104,0 -2,-0.895 -2,-2c0,-3.966 0,-12.784 0,-16.75c0,-1.105 0.896,-2 2,-2c9.627,0 51.123,0 60.75,0c1.105,0 2,0.895 2,2c0,3.966 0,12.784 0,16.75c0,1.105 -0.895,2 -2,2c-3.854,0 -12.27,0 -16.125,0Z" style="fill:#fff;"/><path d="M889.694,265.375c0,-1.75 0.333,-3.396 1,-4.937c0.667,-1.542 1.583,-2.896 2.75,-4.063c1.167,-1.167 2.521,-2.083 4.063,-2.75c1.541,-0.667 3.187,-1 4.937,-1c1.75,0 3.396,0.333 4.938,1c1.541,0.667 2.895,1.583 4.062,2.75c1.167,1.167 2.083,2.521 2.75,4.063c0.667,1.541 1,3.187 1,4.937c0,1.75 -0.333,3.396 -1,4.938c-0.667,1.541 -1.583,2.895 -2.75,4.062c-1.167,1.167 -2.521,2.083 -4.062,2.75c-1.542,0.667 -3.188,1 -4.938,1c-1.75,0 -3.396,-0.333 -4.937,-1c-1.542,-0.667 -2.896,-1.583 -4.063,-2.75c-1.167,-1.167 -2.083,-2.521 -2.75,-4.062c-0.667,-1.542 -1,-3.188 -1,-4.938Z" style="fill:#fff;"/><path d="M931.444,254.875c0,-1.105 0.896,-2 2,-2l34.5,0c8.667,0 15.25,2.083 19.75,6.25c4.5,4.167 6.75,10.167 6.75,18c0,4.75 -0.854,8.688 -2.562,11.813c-1.709,3.125 -4.313,5.77 -7.813,7.937c3.5,0.667 6.479,1.688 8.938,3.063c2.458,1.375 4.458,3.062 6,5.062c1.541,2 2.645,4.25 3.312,6.75c0.667,2.5 1,5.167 1,8c0,4.417 -0.771,8.333 -2.312,11.75c-1.542,3.417 -3.709,6.292 -6.5,8.625c-2.792,2.333 -6.188,4.083 -10.188,5.25c-4,1.167 -8.5,1.75 -13.5,1.75l-37.375,0c-0.53,0 -1.039,-0.211 -1.414,-0.586c-0.375,-0.375 -0.586,-0.884 -0.586,-1.414c0,-12.332 0,-77.918 0,-90.25Zm24.5,71.25c0,0.53 0.211,1.039 0.586,1.414c0.375,0.375 0.884,0.586 1.414,0.586l3.375,0c6.167,0 10.583,-0.792 13.25,-2.375c2.667,-1.583 4,-4.125 4,-7.625c0,-3.5 -1.333,-6.042 -4,-7.625c-2.667,-1.583 -7.083,-2.375 -13.25,-2.375l-3.375,0c-0.53,0 -1.039,0.211 -1.414,0.586c-0.375,0.375 -0.586,0.884 -0.586,1.414c0,3.832 0,12.168 0,16Zm0,-38.25c0,0.53 0.211,1.039 0.586,1.414c0.375,0.375 0.884,0.586 1.414,0.586l2.5,0c7.667,0 11.5,-3.042 11.5,-9.125c0,-6.083 -3.833,-9.125 -11.5,-9.125l-2.5,0c-0.53,0 -1.039,0.211 -1.414,0.586c-0.375,0.375 -0.586,0.884 -0.586,1.414l0,14.25Z" style="fill:#fff;"/><path d="M931.444,254.875c0,-1.105 0.896,-2 2,-2l34.5,0c8.667,0 15.25,2.083 19.75,6.25c4.5,4.167 6.75,10.167 6.75,18c0,4.75 -0.854,8.688 -2.562,11.813c-1.709,3.125 -4.313,5.77 -7.813,7.937c3.5,0.667 6.479,1.688 8.938,3.063c2.458,1.375 4.458,3.062 6,5.062c1.541,2 2.645,4.25 3.312,6.75c0.667,2.5 1,5.167 1,8c0,4.417 -0.771,8.333 -2.312,11.75c-1.542,3.417 -3.709,6.292 -6.5,8.625c-2.792,2.333 -6.188,4.083 -10.188,5.25c-4,1.167 -8.5,1.75 -13.5,1.75l-37.375,0c-0.53,0 -1.039,-0.211 -1.414,-0.586c-0.375,-0.375 -0.586,-0.884 -0.586,-1.414c0,-12.332 0,-77.918 0,-90.25Zm2,0c0,0 0,90.25 0,90.25c0,0 37.375,0 37.375,0c4.792,0 9.106,-0.552 12.94,-1.67c3.714,-1.083 6.873,-2.698 9.465,-4.865c2.561,-2.14 4.546,-4.779 5.96,-7.913c1.433,-3.176 2.135,-6.821 2.135,-10.927c0,-2.651 -0.309,-5.146 -0.932,-7.485c-0.597,-2.238 -1.584,-4.253 -2.964,-6.044c-1.384,-1.795 -3.186,-3.304 -5.393,-4.538c-2.291,-1.282 -5.072,-2.222 -8.335,-2.843c-0.81,-0.155 -1.442,-0.79 -1.592,-1.601c-0.151,-0.811 0.212,-1.631 0.913,-2.065c3.18,-1.968 5.559,-4.357 7.111,-7.196c1.568,-2.869 2.317,-6.492 2.317,-10.853c0,-7.182 -1.983,-12.712 -6.109,-16.532c-4.183,-3.874 -10.333,-5.718 -18.391,-5.718l-34.5,0Zm20.5,71.25c0,1.061 0.422,2.078 1.172,2.828c0.75,0.751 1.767,1.172 2.828,1.172c0,0 3.375,0 3.375,0c6.65,0 11.396,-0.948 14.271,-2.655c3.279,-1.947 4.979,-5.041 4.979,-9.345c0,-4.304 -1.7,-7.398 -4.979,-9.345c-2.875,-1.707 -7.621,-2.655 -14.271,-2.655l-3.375,0c-1.061,0 -2.078,0.421 -2.828,1.172c-0.75,0.75 -1.172,1.767 -1.172,2.828l0,16Zm2,0c0,0.53 0.211,1.039 0.586,1.414c0.375,0.375 0.884,0.586 1.414,0.586l3.375,0c6.167,0 10.583,-0.792 13.25,-2.375c2.667,-1.583 4,-4.125 4,-7.625c0,-3.5 -1.333,-6.042 -4,-7.625c-2.667,-1.583 -7.083,-2.375 -13.25,-2.375l-3.375,0c-0.53,0 -1.039,0.211 -1.414,0.586c-0.375,0.375 -0.586,0.884 -0.586,1.414c0,3.832 0,12.168 0,16Zm-2,-38.25c0,1.061 0.422,2.078 1.172,2.828c0.75,0.751 1.767,1.172 2.828,1.172l2.5,0c5.358,0 9.048,-1.448 11.191,-3.998c1.501,-1.787 2.309,-4.15 2.309,-7.127c0,-2.977 -0.808,-5.34 -2.309,-7.127c-2.143,-2.55 -5.833,-3.998 -11.191,-3.998c0,0 -2.5,0 -2.5,0c-1.061,0 -2.078,0.421 -2.828,1.172c-0.75,0.75 -1.172,1.767 -1.172,2.828l0,14.25Zm2,0c0,0.53 0.211,1.039 0.586,1.414c0.375,0.375 0.884,0.586 1.414,0.586l2.5,0c7.667,0 11.5,-3.042 11.5,-9.125c0,-6.083 -3.833,-9.125 -11.5,-9.125l-2.5,0c-0.53,0 -1.039,0.211 -1.414,0.586c-0.375,0.375 -0.586,0.884 -0.586,1.414l0,14.25Z" style="fill:#fff;"/></g></g><g><path d="M782.86,601.533c0,-3.43 -1.214,-6.102 -3.641,-8.016c-2.427,-1.915 -6.691,-3.897 -12.792,-5.946c-6.101,-2.048 -11.089,-4.03 -14.963,-5.945c-12.603,-6.19 -18.905,-14.696 -18.905,-25.518c0,-5.388 1.57,-10.142 4.71,-14.261c3.139,-4.12 7.581,-7.326 13.326,-9.62c5.745,-2.293 12.202,-3.44 19.372,-3.44c6.992,0 13.26,1.247 18.805,3.741c5.544,2.494 9.853,6.045 12.925,10.655c2.703,4.053 4.217,8.615 4.543,13.684c0.031,0.547 -0.165,1.082 -0.54,1.48c-0.376,0.398 -0.9,0.624 -1.447,0.624c-4.491,0.01 -15.131,0.01 -19.453,0.01c-1.025,-0.001 -1.884,-0.776 -1.988,-1.796c-0.296,-3.109 -1.479,-5.583 -3.526,-7.423c-2.427,-2.182 -5.712,-3.273 -9.853,-3.273c-4.186,0 -7.493,0.924 -9.92,2.772c-2.427,1.849 -3.641,4.198 -3.641,7.048c0,2.494 1.336,4.754 4.008,6.78c2.672,2.026 7.371,4.119 14.095,6.279c6.725,2.16 12.247,4.487 16.567,6.981c10.51,6.056 15.765,14.406 15.765,25.05c0,8.506 -3.207,15.186 -9.62,20.04c-6.412,4.854 -15.208,7.281 -26.386,7.281c-7.882,0 -15.019,-1.414 -21.409,-4.242c-6.391,-2.827 -11.2,-6.702 -14.429,-11.623c-2.872,-4.376 -4.466,-9.343 -4.784,-14.899c-0.028,-0.545 0.17,-1.078 0.545,-1.473c0.376,-0.396 0.898,-0.62 1.444,-0.62c4.496,-0.008 15.176,-0.008 19.549,-0.008c1.049,0 1.919,0.81 1.994,1.857c0.274,4.276 1.601,7.498 3.964,9.666c2.694,2.471 7.07,3.707 13.126,3.707c3.875,0 6.936,-0.835 9.185,-2.505c2.249,-1.67 3.374,-4.019 3.374,-7.047Z" style="fill:#f1f1f1;fill-rule:nonzero;"/><path d="M894.683,546.226c0,1.105 -0.895,2 -2,2c-5.334,0 -19.857,0 -25.191,0c-0.531,0 -1.039,0.211 -1.415,0.586c-0.375,0.375 -0.585,0.884 -0.585,1.414c0,11.011 0,64.147 0,75.158c0,0.531 -0.211,1.039 -0.586,1.414c-0.375,0.376 -0.884,0.586 -1.414,0.586c-4.429,0 -15.019,0 -19.447,0c-0.531,0 -1.039,-0.21 -1.414,-0.586c-0.376,-0.375 -0.586,-0.883 -0.586,-1.414c0,-11.011 0,-64.147 0,-75.158c0,-0.53 -0.211,-1.039 -0.586,-1.414c-0.375,-0.375 -0.884,-0.586 -1.414,-0.586c-5.254,0 -19.403,0 -24.658,0c-0.53,0 -1.039,-0.211 -1.414,-0.586c-0.375,-0.375 -0.586,-0.884 -0.586,-1.414c0,-3.483 0,-10.62 0,-14.103c0,-0.53 0.211,-1.039 0.586,-1.414c0.375,-0.375 0.884,-0.586 1.414,-0.586c11.206,0 66.091,0 77.296,0c0.531,0 1.04,0.211 1.415,0.586c0.375,0.375 0.585,0.884 0.585,1.414c0,3.483 0,10.62 0,14.103Z" style="fill:#f1f1f1;fill-rule:nonzero;"/><path d="M927.282,625.384c0,1.105 -0.896,2 -2,2c-4.282,0 -14.296,0 -18.579,0c-1.104,0 -2,-0.895 -2,-2c0,-9.732 0,-52.065 0,-61.798c0,-1.105 0.896,-2 2,-2c4.283,0 14.297,0 18.579,0c1.104,0 2,0.895 2,2c0,9.733 0,52.066 0,61.798Zm-11.289,-95.261c6.23,0 11.289,5.059 11.289,11.289c0,6.231 -5.059,11.29 -11.289,11.29c-6.231,0 -11.29,-5.059 -11.29,-11.29c0,-6.23 5.059,-11.289 11.29,-11.289Z" style="fill:#f1f1f1;fill-rule:nonzero;"/><path d="M944.178,627.384c-1.104,0 -2,-0.895 -2,-2c0,-12.583 0,-80.678 0,-93.261c0,-1.104 0.896,-2 2,-2c7.416,0 32.917,0 32.937,0c12.514,0 22.033,2.294 28.557,6.881c6.524,4.586 9.786,11.244 9.786,19.973c0,5.032 -1.158,9.33 -3.473,12.892c-2.316,3.563 -5.723,6.19 -10.221,7.883c5.077,1.336 8.974,3.83 11.69,7.481c2.717,3.652 4.075,8.105 4.075,13.36c0,9.531 -3.017,16.689 -9.051,21.477c-6.033,4.786 -14.971,7.224 -26.812,7.314l-37.488,0Zm23.447,-41.349c-1.104,0 -2,0.895 -2,2c0,4.406 0,14.907 0,19.313c0,0.531 0.211,1.039 0.586,1.414c0.375,0.375 0.884,0.586 1.414,0.586c4.158,0 13.354,0 13.364,0c4.231,0 7.482,-0.968 9.753,-2.906c2.271,-1.937 3.407,-4.664 3.407,-8.183c0,-8.104 -4.029,-12.179 -12.088,-12.224l-14.436,0Zm-2,-17.364c0,0.53 0.211,1.039 0.586,1.414c0.375,0.375 0.884,0.586 1.414,0.586l10.236,0c5.116,-0.046 8.763,-0.981 10.944,-2.806c2.182,-1.826 3.273,-4.52 3.273,-8.083c0,-4.097 -1.18,-7.047 -3.54,-8.851c-2.361,-1.803 -6.168,-2.705 -11.423,-2.705c-0.01,0 -6.201,0 -9.49,0c-0.53,0 -1.039,0.211 -1.414,0.586c-0.375,0.375 -0.586,0.884 -0.586,1.414c0,4.26 0,14.185 0,18.445Z" style="fill:#f1f1f1;fill-rule:nonzero;"/><path d="M1071.36,627.384c-0.784,0.001 -1.496,-0.457 -1.821,-1.17c-0.571,-1.372 -1.096,-3.141 -1.571,-5.309c-4.141,5.21 -9.931,7.815 -17.368,7.815c-6.813,0 -12.603,-2.059 -17.368,-6.179c-4.765,-4.119 -7.147,-9.296 -7.147,-15.531c0,-7.838 2.894,-13.761 8.684,-17.769c5.789,-4.008 14.206,-6.012 25.25,-6.012c0.005,0 2.897,0 4.947,0c1.105,0 2,-0.895 2,-2c0,-0.917 0,-1.804 0,-1.807c0,-6.636 -2.872,-9.954 -8.617,-9.954c-4.726,0 -7.362,2.055 -7.909,6.165c-0.14,0.975 -0.975,1.698 -1.96,1.698c-4.163,0.02 -14.231,0.02 -18.59,0.02c-0.559,0 -1.092,-0.234 -1.471,-0.645c-0.379,-0.41 -0.569,-0.961 -0.523,-1.518c0.583,-6.008 3.523,-10.966 8.843,-14.871c5.945,-4.364 13.527,-6.547 22.746,-6.547c9.218,0 16.499,2.249 21.843,6.747c5.339,4.494 8.078,10.654 8.216,18.48l0.001,32.035c0.089,6.539 1.087,11.563 2.993,15.073c0.052,0.094 0.079,0.2 0.079,0.308c0.001,0 0.001,0 0.001,0c0,0.258 -0.103,0.505 -0.285,0.687c-0.182,0.182 -0.429,0.284 -0.686,0.284c-3.609,0 -16.244,0 -20.287,0Zm-15.349,-14.696c2.806,0 5.133,-0.601 6.981,-1.803c1.639,-1.067 2.867,-2.257 3.683,-3.569c0.185,-0.309 0.283,-0.663 0.283,-1.023c0.008,-1.564 0.008,-6.306 0.008,-9.04c0,-0.53 -0.21,-1.039 -0.586,-1.414c-0.375,-0.375 -0.883,-0.586 -1.414,-0.586c-1.922,0 -4.54,0 -4.546,0c-7.838,0 -11.757,3.519 -11.757,10.555c0,2.048 0.69,3.707 2.071,4.976c1.38,1.27 3.139,1.904 5.277,1.904Z" style="fill:#f1f1f1;fill-rule:nonzero;"/><path d="M1139.73,594.154c-0.339,-0.677 -1.031,-1.105 -1.789,-1.105c-2.197,0 -6.802,0 -9.456,0c-0.53,0 -1.039,0.211 -1.414,0.586c-0.375,0.375 -0.586,0.884 -0.586,1.414l0,30.335c0,0.531 -0.21,1.039 -0.585,1.414c-0.376,0.376 -0.884,0.586 -1.415,0.586c-4.428,0 -15.018,0 -19.447,0c-1.104,0 -2,-0.895 -2,-2c0,-12.583 0,-80.678 0,-93.261c0,-1.104 0.896,-2 2,-2c7.868,0 36.26,0 36.277,0c11.534,0 20.552,2.561 27.054,7.682c6.502,5.121 9.753,12.358 9.753,21.71c0,6.769 -1.369,12.381 -4.108,16.834c-2.454,3.99 -6.15,7.3 -11.088,9.932c-0.966,0.511 -1.34,1.706 -0.837,2.677c3.813,7.379 18.178,35.116 19.303,37.289c0.046,0.089 0.07,0.187 0.07,0.288c0,0 0,0 0,0c0,0.469 -0.38,0.849 -0.849,0.849c-3.724,0 -18.622,0 -23.032,0c-0.757,0 -1.45,-0.428 -1.789,-1.105c-2.586,-5.173 -13.475,-26.952 -16.062,-32.125Zm-13.245,-21.208c0,1.105 0.896,2 2,2c4.046,0 12.82,0 12.83,0c4.453,0 7.804,-1.169 10.053,-3.507c2.249,-2.338 3.374,-5.6 3.374,-9.786c0,-4.186 -1.136,-7.471 -3.407,-9.853c-2.271,-2.383 -5.611,-3.574 -10.02,-3.574c-0.01,0 -8.784,0 -12.83,0c-1.104,0 -2,0.895 -2,2c0,4.956 0,17.764 0,22.72Z" style="fill:#f1f1f1;fill-rule:nonzero;"/><path d="M1268.83,594.452c0.562,0 1.099,0.236 1.478,0.651c0.379,0.415 0.565,0.971 0.514,1.531c-0.579,5.878 -2.353,11.13 -5.329,15.754c-3.34,5.188 -8.028,9.207 -14.062,12.057c-6.034,2.85 -12.926,4.275 -20.674,4.275c-12.782,0 -22.846,-4.164 -30.194,-12.491c-7.348,-8.328 -11.022,-20.085 -11.022,-35.271c0,-0.008 0,-4.802 0,-4.81c0,-9.53 1.659,-17.869 4.976,-25.016c3.318,-7.148 8.094,-12.67 14.329,-16.567c6.235,-3.896 13.449,-5.845 21.643,-5.845c11.802,0 21.287,3.106 28.457,9.319c6.668,5.777 10.659,13.587 11.973,23.428c0.074,0.568 -0.1,1.14 -0.478,1.571c-0.378,0.43 -0.924,0.677 -1.496,0.677c-4.584,0.009 -15.005,0.009 -19.275,0.009c-1.038,-0.001 -1.903,-0.795 -1.992,-1.828c-0.397,-4.979 -1.855,-8.622 -4.363,-10.931c-2.806,-2.583 -7.081,-3.875 -12.826,-3.875c-5.834,0 -10.109,2.182 -12.825,6.547c-2.716,4.362 -4.141,11.327 -4.275,20.894l-0.001,6.895c0,10.376 1.303,17.791 3.908,22.244c2.605,4.454 7.092,6.68 13.461,6.68c5.388,0 9.507,-1.269 12.358,-3.807c2.528,-2.253 4.005,-5.679 4.431,-10.28c0.097,-1.019 0.953,-1.797 1.976,-1.797c4.278,-0.014 14.776,-0.014 19.308,-0.014Z" style="fill:#f1f1f1;fill-rule:nonzero;"/></g></svg>